<?xml version="1.0" encoding="UTF-8"?>
<svg id="Layer_1" xmlns="http://www.w3.org/2000/svg" version="1.1" viewBox="0 0 32 32">
  <!-- Generator: Adobe Illustrator 30.0.0, SVG Export Plug-In . SVG Version: 2.1.1 Build 123)  -->
  <rect x="6.4" y="10.88" width="1.92" height="21.12"/>
  <rect x="9.92" y="15.84" width="7.68" height="1.76"/>
  <path d="M7.36,5.44c-.71,0-1.28.57-1.28,1.28s.57,1.28,1.28,1.28,1.28-.57,1.28-1.28-.57-1.28-1.28-1.28Z"/>
  <path d="M24.16,13.6c-1.22,0-2.31.54-3.04,1.4V5.76h-1.92v18.56h1.92v-6.72c0-1.41,1.15-2.56,2.56-2.56s2.56,1.15,2.56,2.56v6.72h1.92v-6.72c0-2.21-1.79-4-4-4Z"/>
</svg>